<?xml version="1.0" encoding="UTF-8" standalone="no"?>
<svg
   xmlns:dc="http://purl.org/dc/elements/1.1/"
   xmlns:cc="http://creativecommons.org/ns#"
   xmlns:rdf="http://www.w3.org/1999/02/22-rdf-syntax-ns#"
   xmlns:svg="http://www.w3.org/2000/svg"
   xmlns="http://www.w3.org/2000/svg"
   xmlns:sodipodi="http://sodipodi.sourceforge.net/DTD/sodipodi-0.dtd"
   xmlns:inkscape="http://www.inkscape.org/namespaces/inkscape"
   viewBox="0 0 18.144186 32.28424"
   version="1.1"
   x="0px"
   y="0px"
   id="svg4596"
   sodipodi:docname="arrow.svg"
   width="18.144186"
   height="32.284241"
   inkscape:version="0.92.3 (2405546, 2018-03-11)">
  <metadata
     id="metadata4602">
    <rdf:RDF>
      <cc:Work
         rdf:about="">
        <dc:format>image/svg+xml</dc:format>
        <dc:type
           rdf:resource="http://purl.org/dc/dcmitype/StillImage" />
        <dc:title>9.13</dc:title>
      </cc:Work>
    </rdf:RDF>
  </metadata>
  <defs
     id="defs4600" />
  <sodipodi:namedview
     pagecolor="#ffffff"
     bordercolor="#666666"
     borderopacity="1"
     objecttolerance="10"
     gridtolerance="10"
     guidetolerance="10"
     inkscape:pageopacity="0"
     inkscape:pageshadow="2"
     inkscape:window-width="1920"
     inkscape:window-height="993"
     id="namedview4598"
     showgrid="false"
     fit-margin-top="0"
     fit-margin-left="0"
     fit-margin-right="0"
     fit-margin-bottom="0"
     inkscape:zoom="13.4"
     inkscape:cx="7.0010258"
     inkscape:cy="-4.6409361"
     inkscape:window-x="0"
     inkscape:window-y="0"
     inkscape:window-maximized="1"
     inkscape:current-layer="svg4596" />
  <title
     id="title4580">9.13</title>
  <desc
     id="desc4582">Created with Sketch.</desc>
  <g
     id="g4590"
     style="fill:#121212;fill-rule:evenodd;stroke:none;stroke-width:1;fill-opacity:1"
     transform="translate(-16.998974,-8.0001937)">
    <g
       id="g4588"
       style="fill:#121212;fill-opacity:1">
      <g
         transform="rotate(-180,24,24)"
         id="g4586"
         style="fill:#121212;fill-opacity:1">
        <path
           d="M 17.686291,23.858723 30.410716,11.134299 c 0.783418,-0.783418 0.784546,-2.0508762 0.0035,-2.8319247 -0.786494,-0.786494 -2.048945,-0.7794826 -2.831925,0.0035 L 13.447151,22.441014 c -5.83e-4,5.83e-4 -0.0012,0.0012 -0.0017,0.0017 -5.84e-4,5.82e-4 -0.0012,0.0012 -0.0018,0.0017 -0.392662,0.392662 -0.587537,0.903959 -0.586809,1.414995 0.0019,0.512305 0.196866,1.023489 0.586809,1.413432 5.83e-4,5.83e-4 0.0012,0.0012 0.0018,0.0017 5.82e-4,5.83e-4 0.0012,0.0012 0.0017,0.0017 l 14.13514,14.13514 c 0.783418,0.783418 2.050876,0.784546 2.831925,0.0035 0.786493,-0.786494 0.779482,-2.048945 -0.0035,-2.831925 z"
           id="path4584"
           inkscape:connector-curvature="0"
           style="fill:#121212;fill-opacity:1" />
      </g>
    </g>
  </g>
</svg>
